<mxfile host="app.diagrams.net" modified="2023-06-12T12:33:22.445Z" agent="Mozilla/5.0 (Windows NT 10.0; Win64; x64) AppleWebKit/537.36 (KHTML, like Gecko) Chrome/114.0.0.0 Safari/537.36" version="21.2.9" etag="RGXpvN0mDRx5O6fD46Sc" type="github">
  <diagram name="Page-1" id="Dj1jLc-BCvKUhTb66MfM">
    <mxGraphModel>
      <root>
        <mxCell id="0" />
        <mxCell id="1" parent="0" />
      </root>
    </mxGraphModel>
  </diagram>
</mxfile>
